<svg width="24" height="25" viewBox="0 0 24 25" fill="none" xmlns="http://www.w3.org/2000/svg">
<path d="M4 13.7388C4 11.8532 4 10.9103 4.58579 10.3246C5.17157 9.73877 6.11438 9.73877 8 9.73877H16C17.8856 9.73877 18.8284 9.73877 19.4142 10.3246C20 10.9103 20 11.8532 20 13.7388V15.7388C20 18.5672 20 19.9814 19.1213 20.8601C18.2426 21.7388 16.8284 21.7388 14 21.7388H10C7.17157 21.7388 5.75736 21.7388 4.87868 20.8601C4 19.9814 4 18.5672 4 15.7388V13.7388Z" stroke="#CCD2E3" stroke-width="2"/>
<path d="M16 8.73877V7.73877C16 5.52963 14.2091 3.73877 12 3.73877V3.73877C9.79086 3.73877 8 5.52963 8 7.73877V8.73877" stroke="#CCD2E3" stroke-width="2" stroke-linecap="round"/>
<circle cx="12" cy="15.7388" r="2" fill="#CCD2E3"/>
</svg>
