<svg width="24" height="28" viewBox="0 0 24 28" fill="none" xmlns="http://www.w3.org/2000/svg">
<path d="M17.7071 14.233L20.3552 16.8811C20.7113 17.2372 20.7113 17.8146 20.3552 18.1706C18.43 20.0959 15.3821 20.3125 13.204 18.6789L11.6286 17.4973C9.88504 16.1897 8.33622 14.6408 7.02857 12.8973L5.84701 11.3219C4.21341 9.14375 4.43001 6.09587 6.35523 4.17065C6.71133 3.81455 7.28867 3.81455 7.64477 4.17065L10.2929 6.81877C10.6834 7.2093 10.6834 7.84246 10.2929 8.23299L9.27175 9.25413C9.10946 9.41642 9.06923 9.66434 9.17187 9.86961C10.3585 12.2429 12.2829 14.1674 14.6563 15.354C14.8615 15.4566 15.1095 15.4164 15.2717 15.2541L16.2929 14.233C16.6834 13.8425 17.3166 13.8425 17.7071 14.233Z" stroke="#CCD2E3" stroke-width="2"/>
</svg>
